<svg xmlns="http://www.w3.org/2000/svg" width="1000" height="680" viewBox="0 0 1000 680" role="img" aria-labelledby="title desc">
  <title id="title">TraceForge HTML report screenshot</title>
  <desc id="desc">Static HTML report preview showing summary cards, request table, and trace samples.</desc>
  <rect width="1000" height="680" fill="#e2e8f0"/>
  <rect x="50" y="34" width="900" height="612" rx="16" fill="#ffffff" stroke="#cbd5e1"/>
  <rect x="50" y="34" width="900" height="44" rx="16" fill="#f8fafc" stroke="#cbd5e1"/>
  <circle cx="76" cy="56" r="7" fill="#ef4444"/>
  <circle cx="100" cy="56" r="7" fill="#f59e0b"/>
  <circle cx="124" cy="56" r="7" fill="#22c55e"/>
  <text x="150" y="62" fill="#64748b" font-family="system-ui, -apple-system, Segoe UI, sans-serif" font-size="14">report.html</text>
  <g font-family="system-ui, -apple-system, Segoe UI, sans-serif" fill="#0f172a">
    <text x="92" y="122" font-size="32" font-weight="700">TraceForge Report</text>
    <text x="92" y="158" font-size="16">Scenario: basic.yml</text>
    <text x="92" y="184" font-size="16">Entry service: api</text>
    <text x="92" y="232" font-size="24" font-weight="700">Summary</text>
    <g font-size="14">
      <rect x="92" y="256" width="160" height="92" rx="10" fill="#f8fafc" stroke="#d7dee8"/>
      <text x="112" y="286">Total requests</text><text x="112" y="326" font-size="28" font-weight="700">10</text>
      <rect x="272" y="256" width="160" height="92" rx="10" fill="#f8fafc" stroke="#d7dee8"/>
      <text x="292" y="286">Success rate</text><text x="292" y="326" font-size="28" font-weight="700">100.00%</text>
      <rect x="452" y="256" width="160" height="92" rx="10" fill="#f8fafc" stroke="#d7dee8"/>
      <text x="472" y="286">Avg latency</text><text x="472" y="326" font-size="28" font-weight="700">199ms</text>
      <rect x="632" y="256" width="224" height="92" rx="10" fill="#f8fafc" stroke="#d7dee8"/>
      <text x="652" y="286">P50 / P95 / P99</text><text x="652" y="326" font-size="28" font-weight="700">195 / 254 / 254ms</text>
    </g>
    <text x="92" y="398" font-size="24" font-weight="700">Requests</text>
    <rect x="92" y="418" width="816" height="134" fill="#ffffff" stroke="#d7dee8"/>
    <rect x="92" y="418" width="816" height="34" fill="#eef2f7" stroke="#d7dee8"/>
    <g font-size="14">
      <text x="112" y="441" font-weight="700">ID</text><text x="188" y="441" font-weight="700">Result</text><text x="312" y="441" font-weight="700">Latency</text><text x="456" y="441" font-weight="700">Retries</text><text x="584" y="441" font-weight="700">Timeouts</text><text x="728" y="441" font-weight="700">Failures</text>
      <text x="112" y="482">1</text><text x="188" y="482" fill="#047857" font-weight="700">success</text><text x="312" y="482">148ms</text><text x="456" y="482">0</text><text x="584" y="482">0</text><text x="728" y="482">0</text>
      <text x="112" y="522">2</text><text x="188" y="522" fill="#047857" font-weight="700">success</text><text x="312" y="522">254ms</text><text x="456" y="522">0</text><text x="584" y="522">0</text><text x="728" y="522">0</text>
    </g>
    <text x="92" y="594" font-size="24" font-weight="700">Trace samples</text>
    <rect x="92" y="610" width="816" height="26" rx="8" fill="#0f172a"/>
    <text x="112" y="629" fill="#e2e8f0" font-family="ui-monospace, SFMono-Regular, Menlo, Consolas, monospace" font-size="13">REQUEST 001  api -&gt; payments  attempt 1: success in 88ms</text>
  </g>
</svg>
